<svg width="20" height="21" viewBox="0 0 20 21" fill="none" xmlns="http://www.w3.org/2000/svg">
<g id="icon / 3d">
<path id="icon" fill-rule="evenodd" clip-rule="evenodd" d="M9.99984 2.16666C9.60277 2.16666 9.2106 2.25432 8.85133 2.42339L3.58051 4.90377C2.41221 5.45357 1.6665 6.62863 1.6665 7.91984V13.8333C1.6665 14.6648 2.1467 15.4215 2.89902 15.7755L8.85133 18.5766C9.2106 18.7457 9.60277 18.8333 9.99984 18.8333C10.3969 18.8333 10.7891 18.7457 11.1483 18.5766L17.1007 15.7755C17.853 15.4215 18.3332 14.6648 18.3332 13.8333V7.91984C18.3332 6.62863 17.5875 5.45357 16.4192 4.90377L11.1483 2.42339C10.7891 2.25432 10.3969 2.16666 9.99984 2.16666ZM16.6665 12.485L10.8332 9.5683V4.11706L15.7095 6.41181C16.2937 6.6867 16.6665 7.27423 16.6665 7.91984V12.485ZM9.99984 11.015L16.4451 14.2376C16.4279 14.2486 16.4098 14.2586 16.391 14.2675L10.4387 17.0686C10.3014 17.1332 10.1516 17.1667 9.99984 17.1667C9.84812 17.1667 9.69827 17.1332 9.56099 17.0686L3.60868 14.2675C3.58987 14.2586 3.57182 14.2486 3.5546 14.2376L9.99984 11.015ZM9.1665 9.5683L3.33317 12.485V7.91984C3.33317 7.27423 3.70602 6.6867 4.29018 6.41181L9.1665 4.11706V9.5683Z" fill="black"/>
</g>
</svg>
