<svg width="20" height="20" viewBox="0 0 20 20" fill="none" xmlns="http://www.w3.org/2000/svg">
<g id="icon / bell">
<path id="icon" fill-rule="evenodd" clip-rule="evenodd" d="M10.8335 2.49999C10.8335 2.03975 10.4604 1.66666 10.0001 1.66666C9.53989 1.66666 9.1668 2.03975 9.1668 2.49999V2.97571C6.34003 3.37993 4.1668 5.81018 4.1668 8.74908L4.1668 12.0827C4.1668 12.0827 4.1668 12.0826 4.1668 12.0827C4.16672 12.0843 4.16615 12.0955 4.16254 12.1174C4.1582 12.1436 4.1505 12.1793 4.13778 12.2252C4.11201 12.3183 4.07099 12.4342 4.01369 12.5712C3.8988 12.8459 3.73683 13.1622 3.5577 13.4813C3.22092 14.0813 3.05115 14.7962 3.1786 15.476C3.31301 16.193 3.7745 16.8182 4.56268 17.1183C5.26677 17.3864 6.20399 17.6316 7.44168 17.7775C7.47113 17.803 7.50595 17.8323 7.54596 17.8643C7.6712 17.9644 7.85013 18.0943 8.07626 18.2235C8.52507 18.48 9.18865 18.75 10.0001 18.75C10.8116 18.75 11.4752 18.48 11.924 18.2235C12.1501 18.0943 12.3291 17.9644 12.4543 17.8643C12.4943 17.8323 12.5291 17.803 12.5586 17.7775C13.7963 17.6316 14.7335 17.3864 15.4376 17.1183C16.2258 16.8182 16.6873 16.193 16.8217 15.476C16.9491 14.7962 16.7793 14.0813 16.4426 13.4813C16.2634 13.1622 16.1015 12.8459 15.9866 12.5712C15.9293 12.4342 15.8882 12.3183 15.8625 12.2252C15.8498 12.1793 15.8421 12.1436 15.8377 12.1174C15.8341 12.0955 15.8336 12.0845 15.8335 12.083C15.8335 12.0828 15.8335 12.083 15.8335 12.083L15.8335 12.0759V8.74948C15.8335 5.81066 13.6603 3.38 10.8335 2.97572V2.49999ZM5.83346 8.74908C5.83346 6.44809 7.69875 4.58332 10.0001 4.58332C12.3014 4.58332 14.1668 6.4484 14.1668 8.74948V12.0833C14.1668 12.4691 14.3113 12.8852 14.4489 13.2143C14.5984 13.5717 14.7944 13.95 14.9892 14.2971C15.1787 14.6347 15.2239 14.9537 15.1835 15.1689C15.1501 15.3471 15.0611 15.4783 14.8445 15.5608C13.9488 15.9018 12.4367 16.25 10.0001 16.25C7.56352 16.25 6.05147 15.9018 5.15575 15.5608C4.9392 15.4783 4.85014 15.3471 4.81673 15.1689C4.77638 14.9537 4.82156 14.6347 5.01104 14.2971C5.20591 13.95 5.40182 13.5717 5.55131 13.2143C5.68892 12.8852 5.83346 12.4691 5.83346 12.0833V8.74908Z" fill="#344054"/>
</g>
</svg>
