<svg width="20" height="20" viewBox="0 0 20 20" fill="none" xmlns="http://www.w3.org/2000/svg">
<g id="icon / calendar">
<path id="icon" fill-rule="evenodd" clip-rule="evenodd" d="M6.66675 0.833344C7.12699 0.833344 7.50008 1.20644 7.50008 1.66668V2.50001H12.5001V1.66668C12.5001 1.20644 12.8732 0.833344 13.3334 0.833344C13.7937 0.833344 14.1667 1.20644 14.1667 1.66668V2.50001H15.0001C16.841 2.50001 18.3334 3.99239 18.3334 5.83334V15C18.3334 16.841 16.841 18.3333 15.0001 18.3333H5.00008C3.15913 18.3333 1.66675 16.841 1.66675 15V5.83334C1.66675 3.99239 3.15913 2.50001 5.00008 2.50001H5.83341V1.66668C5.83341 1.20644 6.20651 0.833344 6.66675 0.833344ZM12.5001 4.16668C12.5001 4.62691 12.8732 5.00001 13.3334 5.00001C13.7937 5.00001 14.1667 4.62691 14.1667 4.16668H15.0001C15.9206 4.16668 16.6667 4.91287 16.6667 5.83334V6.25001H3.33341V5.83334C3.33341 4.91287 4.07961 4.16668 5.00008 4.16668H5.83341C5.83341 4.62691 6.20651 5.00001 6.66675 5.00001C7.12699 5.00001 7.50008 4.62691 7.50008 4.16668H12.5001ZM16.6667 7.91668H3.33341V15C3.33341 15.9205 4.07961 16.6667 5.00008 16.6667H15.0001C15.9206 16.6667 16.6667 15.9205 16.6667 15V7.91668Z" fill="#667185"/>
</g>
</svg>
