<svg width="20" height="20" viewBox="0 0 20 20" fill="none" xmlns="http://www.w3.org/2000/svg">
<g id="icon / clock">
<g id="icon">
<path d="M9.99984 7.08334C9.99984 6.6231 9.62674 6.25001 9.1665 6.25001C8.70627 6.25001 8.33317 6.6231 8.33317 7.08334V11.25C8.33317 11.7102 8.70627 12.0833 9.1665 12.0833H11.6665C12.1267 12.0833 12.4998 11.7102 12.4998 11.25C12.4998 10.7898 12.1267 10.4167 11.6665 10.4167H9.99984V7.08334Z" fill="#667185"/>
<path fill-rule="evenodd" clip-rule="evenodd" d="M9.99984 1.66667C5.39746 1.66667 1.6665 5.39763 1.6665 10C1.6665 14.6024 5.39746 18.3333 9.99984 18.3333C14.6022 18.3333 18.3332 14.6024 18.3332 10C18.3332 5.39763 14.6022 1.66667 9.99984 1.66667ZM3.33317 10C3.33317 6.31811 6.31794 3.33334 9.99984 3.33334C13.6817 3.33334 16.6665 6.31811 16.6665 10C16.6665 13.6819 13.6817 16.6667 9.99984 16.6667C6.31794 16.6667 3.33317 13.6819 3.33317 10Z" fill="#667185"/>
</g>
</g>
</svg>
