<svg width="20" height="20" viewBox="0 0 20 20" fill="none" xmlns="http://www.w3.org/2000/svg">
<g id="icon / file">
<g id="icon">
<path d="M5.83333 10C5.83333 9.53977 6.20643 9.16668 6.66667 9.16668H13.3333C13.7936 9.16668 14.1667 9.53977 14.1667 10C14.1667 10.4602 13.7936 10.8333 13.3333 10.8333H6.66667C6.20643 10.8333 5.83333 10.4602 5.83333 10Z" fill="#667185"/>
<path d="M6.66667 13.3333C6.20643 13.3333 5.83333 13.7064 5.83333 14.1667C5.83333 14.6269 6.20643 15 6.66667 15H13.3333C13.7936 15 14.1667 14.6269 14.1667 14.1667C14.1667 13.7064 13.7936 13.3333 13.3333 13.3333H6.66667Z" fill="#667185"/>
<path fill-rule="evenodd" clip-rule="evenodd" d="M5.83333 0.833344C3.99238 0.833344 2.5 2.32573 2.5 4.16668V15.8333C2.5 17.6743 3.99238 19.1667 5.83333 19.1667H14.1667C16.0076 19.1667 17.5 17.6743 17.5 15.8333V7.5718C17.5 6.79201 17.2266 6.0369 16.7274 5.43785L13.8898 2.03273C13.2565 1.27275 12.3183 0.833344 11.3291 0.833344H5.83333ZM4.16667 4.16668C4.16667 3.2462 4.91286 2.50001 5.83333 2.50001H10.8333V5.00001C10.8333 6.84096 12.3257 8.33334 14.1667 8.33334H15.8333V15.8333C15.8333 16.7538 15.0871 17.5 14.1667 17.5H5.83333C4.91286 17.5 4.16667 16.7538 4.16667 15.8333V4.16668ZM15.5661 6.66668C15.5299 6.61062 15.4901 6.55656 15.447 6.50483L12.6094 3.0997C12.5747 3.05806 12.5382 3.01834 12.5 2.98063V5.00001C12.5 5.92048 13.2462 6.66668 14.1667 6.66668H15.5661Z" fill="#667185"/>
</g>
</g>
</svg>
