<svg width="20" height="20" viewBox="0 0 20 20" fill="none" xmlns="http://www.w3.org/2000/svg">
<g id="icon / gift">
<path id="icon" fill-rule="evenodd" clip-rule="evenodd" d="M11.4151 1.75393L10.4166 2.66167L9.41807 1.75393C7.85602 0.333881 5.6724 1.60955 5.6089 3.33334H3.33325C1.95254 3.33334 0.833252 4.45263 0.833252 5.83334V7.40741C0.833252 8.07752 1.20791 8.66012 1.75918 8.95717V15.8333C1.75918 17.6743 3.25156 19.1667 5.09251 19.1667H14.9073C16.7483 19.1667 18.2407 17.6743 18.2407 15.8333V8.95717C18.7919 8.66012 19.1666 8.07752 19.1666 7.40741V5.83334C19.1666 4.45263 18.0473 3.33334 16.6666 3.33334H15.2243C15.1608 1.60955 12.9771 0.333881 11.4151 1.75393ZM6.68186 5.00001C6.67219 5.00017 6.66254 5.00017 6.65289 5.00001H3.33325C2.87301 5.00001 2.49992 5.3731 2.49992 5.83334V7.40741C2.49992 7.45855 2.54137 7.50001 2.59251 7.50001H17.4073C17.4585 7.50001 17.4999 7.45855 17.4999 7.40741V5.83334C17.4999 5.3731 17.1268 5.00001 16.6666 5.00001H14.1803C14.1706 5.00017 14.161 5.00017 14.1513 5.00001H6.68186ZM11.2499 9.16667H8.74992V11.4063C8.74992 11.435 8.75688 11.4485 8.76215 11.4565C8.76941 11.4675 8.7827 11.4805 8.80254 11.49C8.82238 11.4995 8.84081 11.5018 8.85396 11.5006C8.86349 11.4997 8.87838 11.4967 8.90076 11.4788C9.54337 10.9647 10.4565 10.9647 11.0991 11.4788C11.1215 11.4967 11.1363 11.4997 11.1459 11.5006C11.159 11.5018 11.1775 11.4995 11.1973 11.49C11.2171 11.4805 11.2304 11.4675 11.2377 11.4565C11.243 11.4485 11.2499 11.435 11.2499 11.4063V9.16667ZM7.08325 9.16667V11.4063C7.08325 12.8817 8.78986 13.7019 9.94192 12.7803C9.97583 12.7531 10.024 12.7531 10.0579 12.7803C11.21 13.7019 12.9166 12.8817 12.9166 11.4063V9.16667H16.574V15.8333C16.574 16.7538 15.8278 17.5 14.9073 17.5H5.09251C4.17204 17.5 3.42584 16.7538 3.42584 15.8333V9.16667H7.08325ZM8.29695 2.98716L8.67775 3.33334H7.29776C7.36781 2.91538 7.90604 2.63179 8.29695 2.98716ZM13.5354 3.33334C13.4654 2.91538 12.9271 2.63179 12.5362 2.98716L12.1554 3.33334H13.5354Z" fill="#667185"/>
</g>
</svg>
