<svg width="20" height="20" viewBox="0 0 20 20" fill="none" xmlns="http://www.w3.org/2000/svg">
<g id="icon / home">
<path id="icon" fill-rule="evenodd" clip-rule="evenodd" d="M11.912 1.98751C10.7643 1.1841 9.23666 1.18409 8.08893 1.98751L2.35761 5.99943C1.3921 6.67529 0.855245 7.81077 0.945636 8.98586L1.53315 16.6236C1.64396 18.064 2.94913 19.111 4.37934 18.9067L7.02069 18.5294C8.25231 18.3534 9.16713 17.2986 9.16713 16.0545V15C9.16713 14.5397 9.54023 14.1666 10.0005 14.1666C10.4607 14.1666 10.8338 14.5397 10.8338 15V16.0545C10.8338 17.2986 11.7486 18.3534 12.9802 18.5294L15.6216 18.9067C17.0518 19.111 18.357 18.064 18.4678 16.6236L19.0553 8.98586C19.1457 7.81077 18.6088 6.67529 17.6433 5.99943L11.912 1.98751ZM9.0447 3.35289C9.61856 2.95119 10.3824 2.95119 10.9562 3.3529L16.6876 7.36482C17.1703 7.70275 17.4387 8.27049 17.3935 8.85803L16.806 16.4957C16.7691 16.9759 16.334 17.3249 15.8573 17.2568L13.2159 16.8794C12.8054 16.8208 12.5005 16.4692 12.5005 16.0545V15C12.5005 13.6193 11.3812 12.5 10.0005 12.5C8.61976 12.5 7.50047 13.6193 7.50047 15V16.0545C7.50047 16.4692 7.19553 16.8208 6.78499 16.8794L4.14364 17.2568C3.6669 17.3249 3.23184 16.9759 3.19491 16.4957L2.60739 8.85803C2.5622 8.27048 2.83062 7.70275 3.31338 7.36481L9.0447 3.35289Z" fill="#001F3F"/>
</g>
</svg>
