<svg width="24" height="24" viewBox="0 0 24 24" fill="none" xmlns="http://www.w3.org/2000/svg">
<g id="icon / loudspeaker">
<path id="icon" fill-rule="evenodd" clip-rule="evenodd" d="M23 3.42942C23 2.04053 21.6191 1.07449 20.3144 1.5506L13.0165 4.21371L5.68817 4.78675C3.60632 4.94954 2 6.68638 2 8.77457V10.2254C2 12.3136 3.60633 14.0505 5.68817 14.2133L6.10077 14.2455L6.80448 20.3589C6.97774 21.864 8.25202 23 9.76707 23C11.5542 23 12.9401 21.4388 12.7282 19.6643L12.1375 14.7176L13.0165 14.7863L20.3144 17.4494C21.6191 17.9255 23 16.9595 23 15.5706V3.42942ZM5.84408 6.78066L12.2308 6.28125V12.7188L5.84409 12.2193C4.80316 12.1379 4 11.2695 4 10.2254V8.77457C4 7.73047 4.80316 6.86206 5.84408 6.78066ZM21 15.5706L14.2308 13.1004V5.89959L21 3.42942L21 15.5706ZM8.79136 20.1302L8.13226 14.4044L10.1043 14.5586L10.7423 19.9014C10.8121 20.4858 10.3557 21 9.76707 21C9.2681 21 8.84842 20.6259 8.79136 20.1302Z" fill="#344054"/>
</g>
</svg>
