<svg width="24" height="24" viewBox="0 0 24 24" fill="none" xmlns="http://www.w3.org/2000/svg">
<g id="icon / map-marker">
<g id="icon">
<path fill-rule="evenodd" clip-rule="evenodd" d="M12.0002 5.49999C9.51487 5.49999 7.50015 7.51471 7.50015 9.99999C7.50015 12.4853 9.51487 14.5 12.0002 14.5C14.4854 14.5 16.5002 12.4853 16.5002 9.99999C16.5002 7.51471 14.4854 5.49999 12.0002 5.49999ZM9.50015 9.99999C9.50015 8.61928 10.6194 7.49999 12.0002 7.49999C13.3809 7.49999 14.5002 8.61928 14.5002 9.99999C14.5002 11.3807 13.3809 12.5 12.0002 12.5C10.6194 12.5 9.50015 11.3807 9.50015 9.99999Z" fill="#344054"/>
<path fill-rule="evenodd" clip-rule="evenodd" d="M7.80939 3.59198C10.3471 1.90017 13.6532 1.90017 16.1909 3.59198C19.6218 5.87924 20.585 10.495 18.3553 13.9635L14.5237 19.9237C13.3428 21.7607 10.6575 21.7607 9.47662 19.9237L5.64505 13.9635C3.41528 10.495 4.3785 5.87924 7.80939 3.59198ZM8.9188 5.25608C10.7847 4.01213 13.2156 4.01213 15.0815 5.25608C17.6042 6.93785 18.3124 10.3317 16.6729 12.882L12.8413 18.8422C12.4477 19.4546 11.5526 19.4546 11.159 18.8422L7.32741 12.882C5.68792 10.3317 6.39615 6.93785 8.9188 5.25608Z" fill="#344054"/>
</g>
</g>
</svg>
