<svg width="20" height="20" viewBox="0 0 20 20" fill="none" xmlns="http://www.w3.org/2000/svg">
<g id="icon / message">
<g id="icon">
<path d="M5.00008 7.08334C5.00008 6.62311 5.37318 6.25001 5.83341 6.25001H10.0001C10.4603 6.25001 10.8334 6.62311 10.8334 7.08334C10.8334 7.54358 10.4603 7.91668 10.0001 7.91668H5.83341C5.37318 7.91668 5.00008 7.54358 5.00008 7.08334Z" fill="#667185"/>
<path d="M5.83341 9.58334C5.37318 9.58334 5.00008 9.95644 5.00008 10.4167C5.00008 10.8769 5.37318 11.25 5.83341 11.25H13.3334C13.7937 11.25 14.1667 10.8769 14.1667 10.4167C14.1667 9.95644 13.7937 9.58334 13.3334 9.58334H5.83341Z" fill="#667185"/>
<path fill-rule="evenodd" clip-rule="evenodd" d="M12.8334 16.625L14.0001 15.75C14.2886 15.5336 14.6395 15.4167 15.0001 15.4167C16.841 15.4167 18.3334 13.9243 18.3334 12.0833V5.41668C18.3334 3.57573 16.841 2.08334 15.0001 2.08334H5.00008C3.15913 2.08334 1.66675 3.57573 1.66675 5.41668V12.0833C1.66675 13.9243 3.15913 15.4167 5.00008 15.4167H6.66675C7.02737 15.4167 7.37825 15.5336 7.66675 15.75L8.83342 16.625C10.0186 17.5139 11.6482 17.5139 12.8334 16.625ZM15.0001 13.75C14.2788 13.75 13.5771 13.9839 13.0001 14.4167L11.8334 15.2917C11.2408 15.7361 10.426 15.7361 9.83342 15.2917L8.66675 14.4167C8.08976 13.9839 7.38798 13.75 6.66675 13.75H5.00008C4.07961 13.75 3.33341 13.0038 3.33341 12.0833V5.41668C3.33341 4.4962 4.07961 3.75001 5.00008 3.75001H15.0001C15.9206 3.75001 16.6667 4.4962 16.6667 5.41668V12.0833C16.6667 13.0038 15.9206 13.75 15.0001 13.75Z" fill="#667185"/>
</g>
</g>
</svg>
