<svg width="20" height="20" viewBox="0 0 20 20" fill="none" xmlns="http://www.w3.org/2000/svg">
<g id="icon / sign-out">
<g id="icon">
<path d="M6.25008 3.33332C6.71032 3.33332 7.08342 2.96023 7.08342 2.49999C7.08342 2.03975 6.71032 1.66666 6.25008 1.66666H5.00008C3.15913 1.66666 1.66675 3.15904 1.66675 4.99999V15C1.66675 16.8409 3.15913 18.3333 5.00008 18.3333H6.25008C6.71032 18.3333 7.08341 17.9602 7.08341 17.5C7.08341 17.0398 6.71032 16.6667 6.25008 16.6667H5.00008C4.07961 16.6667 3.33341 15.9205 3.33341 15L3.33342 4.99999C3.33342 4.07952 4.07961 3.33332 5.00008 3.33332H6.25008Z" fill="black"/>
<path d="M18.9227 10.5892C19.2481 10.2638 19.2481 9.73617 18.9227 9.41073L15.5893 6.0774C15.2639 5.75196 14.7363 5.75196 14.4108 6.0774C14.0854 6.40284 14.0854 6.93048 14.4108 7.25591L16.3216 9.16666L6.66675 9.16666C6.20651 9.16666 5.83341 9.53975 5.83341 9.99999C5.83341 10.4602 6.20651 10.8333 6.66675 10.8333L16.3216 10.8333L14.4108 12.7441C14.0854 13.0695 14.0854 13.5971 14.4108 13.9226C14.7363 14.248 15.2639 14.248 15.5893 13.9226L18.9227 10.5892Z" fill="black"/>
</g>
</g>
</svg>
