<svg width="20" height="21" viewBox="0 0 20 21" fill="none" xmlns="http://www.w3.org/2000/svg">
<g id="icon / sun">
<g id="icon">
<path d="M10.8333 2.16668C10.8333 1.70644 10.4602 1.33334 9.99998 1.33334C9.53974 1.33334 9.16664 1.70644 9.16664 2.16668V3.41668C9.16664 3.87691 9.53974 4.25001 9.99998 4.25001C10.4602 4.25001 10.8333 3.87691 10.8333 3.41668V2.16668Z" fill="black"/>
<path fill-rule="evenodd" clip-rule="evenodd" d="M4.16664 10.5C4.16664 7.27835 6.77832 4.66668 9.99998 4.66668C13.2216 4.66668 15.8333 7.27835 15.8333 10.5C15.8333 13.7217 13.2216 16.3333 9.99998 16.3333C6.77832 16.3333 4.16664 13.7217 4.16664 10.5ZM9.99998 6.33334C7.69879 6.33334 5.83331 8.19882 5.83331 10.5C5.83331 12.8012 7.69879 14.6667 9.99998 14.6667C12.3012 14.6667 14.1666 12.8012 14.1666 10.5C14.1666 8.19882 12.3012 6.33334 9.99998 6.33334Z" fill="black"/>
<path d="M9.99998 16.3333C10.4602 16.3333 10.8333 16.7064 10.8333 17.1667V18.4167C10.8333 18.8769 10.4602 19.25 9.99998 19.25C9.53974 19.25 9.16664 18.8769 9.16664 18.4167V17.1667C9.16664 16.7064 9.53974 16.3333 9.99998 16.3333Z" fill="black"/>
<path d="M15.4115 13.4167C15.6416 13.0181 16.1513 12.8815 16.5499 13.1117L17.6324 13.7367C18.031 13.9668 18.1675 14.4764 17.9374 14.875C17.7073 15.2736 17.1976 15.4101 16.7991 15.18L15.7165 14.555C15.318 14.3249 15.1814 13.8153 15.4115 13.4167Z" fill="black"/>
<path d="M15.7165 6.44499C15.318 6.67511 15.1814 7.18477 15.4115 7.58334C15.6416 7.98192 16.1513 8.11848 16.5499 7.88836L17.6324 7.26336C18.031 7.03325 18.1675 6.52359 17.9374 6.12501C17.7073 5.72643 17.1976 5.58987 16.7991 5.81999L15.7165 6.44499Z" fill="black"/>
<path d="M3.19985 5.61166C2.80127 5.38154 2.29161 5.5181 2.06149 5.91668C1.83137 6.31525 1.96794 6.82491 2.36651 7.05503L3.44904 7.68003C3.84762 7.91015 4.35728 7.77359 4.5874 7.37501C4.81752 6.97643 4.68096 6.46677 4.28238 6.23666L3.19985 5.61166Z" fill="black"/>
<path d="M2.06149 15.0833C1.83137 14.6848 1.96794 14.1751 2.36651 13.945L3.44904 13.32C3.84762 13.0899 4.35728 13.2264 4.5874 13.625C4.81752 14.0236 4.68096 14.5332 4.28238 14.7634L3.19985 15.3884C2.80127 15.6185 2.29161 15.4819 2.06149 15.0833Z" fill="black"/>
</g>
</g>
</svg>
