<svg width="20" height="21" viewBox="0 0 20 21" fill="none" xmlns="http://www.w3.org/2000/svg">
<g id="icon / thermometer">
<g id="icon">
<path d="M10.8333 4.66668C10.8333 4.20644 10.4602 3.83334 10 3.83334C9.53976 3.83334 9.16667 4.20644 9.16667 4.66668V13.8333C9.16667 14.2936 9.53976 14.6667 10 14.6667C10.4602 14.6667 10.8333 14.2936 10.8333 13.8333V4.66668Z" fill="black"/>
<path fill-rule="evenodd" clip-rule="evenodd" d="M10 1.33334C8.32149 1.33334 6.96078 2.69404 6.96078 4.37256V10.4307C5.76489 11.3743 5 12.8586 5 14.5188C5 17.3343 7.21142 19.6667 10 19.6667C12.7886 19.6667 15 17.3343 15 14.5188C15 12.8586 14.2351 11.3743 13.0392 10.4307V4.37256C13.0392 2.69405 11.6785 1.33334 10 1.33334ZM6.66667 14.5188C6.66667 13.3501 7.21646 12.3241 8.0509 11.6945C8.38208 11.4447 8.62745 11.0381 8.62745 10.5586V4.37256C8.62745 3.61452 9.24196 3.00001 10 3.00001C10.758 3.00001 11.3725 3.61452 11.3725 4.37256V10.5586C11.3725 11.0381 11.6179 11.4447 11.9491 11.6945C12.7835 12.3241 13.3333 13.3501 13.3333 14.5188C13.3333 16.469 11.8138 18 10 18C8.18621 18 6.66667 16.469 6.66667 14.5188Z" fill="black"/>
</g>
</g>
</svg>
