<svg width="25" height="25" viewBox="0 0 25 25" fill="none" xmlns="http://www.w3.org/2000/svg">
<path d="M16.2046 12.0058L7.71256 3.27877C7.64264 3.20844 7.58737 3.12494 7.54994 3.03311C7.5125 2.94128 7.49365 2.84293 7.49447 2.74377C7.4953 2.6446 7.51578 2.54659 7.55474 2.45539C7.59369 2.36419 7.65034 2.28163 7.72142 2.21247C7.79249 2.14331 7.87658 2.08894 7.96881 2.05249C8.06103 2.01604 8.15958 1.99825 8.25873 2.00014C8.35788 2.00202 8.45567 2.02356 8.54644 2.06349C8.63722 2.10342 8.71917 2.16095 8.78756 2.23277L17.7876 11.4828C17.9238 11.6228 18 11.8104 18 12.0058C18 12.2011 17.9238 12.3888 17.7876 12.5288L8.78756 21.7788C8.71917 21.8506 8.63722 21.9081 8.54644 21.948C8.45567 21.988 8.35788 22.0095 8.25873 22.0114C8.15958 22.0133 8.06103 21.9955 7.96881 21.959C7.87658 21.9226 7.79249 21.8682 7.72142 21.7991C7.65034 21.7299 7.59369 21.6473 7.55474 21.5561C7.51578 21.4649 7.4953 21.3669 7.49447 21.2678C7.49365 21.1686 7.5125 21.0703 7.54994 20.9784C7.58737 20.8866 7.64264 20.8031 7.71256 20.7328L16.2046 12.0058Z" fill="black"/>
</svg>
