<svg width="24" height="24" viewBox="0 0 24 24" fill="none" xmlns="http://www.w3.org/2000/svg">
<path d="M2.78989 10.5058L11.2819 1.77877C11.3518 1.70844 11.4071 1.62494 11.4445 1.53311C11.4819 1.44128 11.5008 1.34293 11.5 1.24377C11.4991 1.1446 11.4787 1.04659 11.4397 0.95539C11.4008 0.864193 11.3441 0.781627 11.273 0.712469C11.202 0.643312 11.1179 0.588936 11.0256 0.552489C10.9334 0.516043 10.8349 0.498248 10.7357 0.500136C10.6366 0.502024 10.5388 0.523556 10.448 0.563487C10.3572 0.603418 10.2753 0.660954 10.2069 0.732767L1.20689 9.98277C1.07066 10.1228 0.994446 10.3104 0.994446 10.5058C0.994446 10.7011 1.07066 10.8888 1.20689 11.0288L10.2069 20.2788C10.2753 20.3506 10.3572 20.4081 10.448 20.448C10.5388 20.488 10.6366 20.5095 10.7357 20.5114C10.8349 20.5133 10.9334 20.4955 11.0256 20.459C11.1179 20.4226 11.202 20.3682 11.273 20.2991C11.3441 20.2299 11.4008 20.1473 11.4397 20.0561C11.4787 19.9649 11.4991 19.8669 11.5 19.7678C11.5008 19.6686 11.4819 19.5703 11.4445 19.4784C11.4071 19.3866 11.3518 19.3031 11.2819 19.2328L2.78989 10.5058Z" fill="black"/>
</svg>
