<svg width="80" height="80" viewBox="0 0 80 80" fill="none" xmlns="http://www.w3.org/2000/svg">
<g id="circle-lock-check-02">
<path id="Vector" fill-rule="evenodd" clip-rule="evenodd" d="M16.6666 23.2C16.6666 13.4798 24.8747 5.59998 35 5.59998C45.1253 5.59998 53.3333 13.4798 53.3333 23.2V32.8C53.3333 34.5673 51.841 36 50 36C48.159 36 46.6666 34.5673 46.6666 32.8V23.2C46.6666 17.0144 41.4433 12 35 12C28.5566 12 23.3333 17.0144 23.3333 23.2V32.8C23.3333 34.5673 21.8409 36 20 36C18.159 36 16.6666 34.5673 16.6666 32.8V23.2Z" fill="#141B34"/>
<path id="Vector_2" d="M68.3333 59.2001C68.3333 66.2692 62.3636 72.0001 55 72.0001C47.6363 72.0001 41.6666 66.2692 41.6666 59.2001C41.6666 52.1309 47.6363 46.4001 55 46.4001C62.3636 46.4001 68.3333 52.1309 68.3333 59.2001Z" fill="white"/>
<path id="Vector_3" d="M35 24.8C20.7326 24.8 9.16663 35.9034 9.16663 49.6C9.16663 63.2967 20.7326 74.4 35 74.4C35.6823 74.4 36.3583 74.3747 37.0273 74.3248C38.5596 74.2106 39.3256 74.1536 39.5703 73.6387C39.815 73.1239 39.292 72.4458 38.2463 71.0896C35.6826 67.7661 34.1666 63.6531 34.1666 59.2C34.1666 48.1543 43.494 39.2 55 39.2C56.6226 39.2 57.4336 39.2 57.7303 38.7696C57.76 38.7267 57.7846 38.6835 57.807 38.6368C58.029 38.1667 57.652 37.5898 56.8976 36.4362C52.3286 29.4466 44.2296 24.8 35 24.8Z" fill="#141B34"/>
<path id="Vector_4" fill-rule="evenodd" clip-rule="evenodd" d="M55 44C46.2553 44 39.1666 50.8052 39.1666 59.2C39.1666 67.5949 46.2553 74.4 55 74.4C63.7446 74.4 70.8333 67.5949 70.8333 59.2C70.8333 50.8052 63.7446 44 55 44ZM60.631 58.4701C61.847 57.8416 62.302 56.3863 61.6473 55.2192C60.993 54.0519 59.4766 53.6151 58.261 54.2435C56.0683 55.3767 54.191 57.7648 53.088 59.3677C52.7223 59.0871 52.1116 58.6762 51.6336 58.4573C50.3873 57.8864 48.8953 58.3936 48.301 59.5901C47.7116 60.7754 48.225 62.1923 49.4466 62.7735C49.4466 62.7735 49.7923 62.9818 49.989 63.1348C50.3836 63.4416 50.9096 63.9424 51.3663 64.6861C51.835 65.4503 52.7046 65.9037 53.6273 65.8656C54.5493 65.8276 55.3756 65.3031 55.775 64.5047C55.846 64.3706 56.0506 63.9847 56.1903 63.7386C56.4713 63.2442 56.8753 62.5712 57.3673 61.8563C58.4263 60.3175 59.6196 58.9927 60.631 58.4701Z" fill="#141B34"/>
</g>
</svg>
