<svg width="32" height="32" viewBox="0 0 32 32" fill="none" xmlns="http://www.w3.org/2000/svg">
<rect width="32" height="32" rx="16" fill="white"/>
<g clip-path="url(#clip0_65_41)">
<path d="M13.334 16C13.334 14.5273 14.5276 13.3331 16.0003 13.3331C17.4731 13.3331 18.6673 14.5273 18.6673 16C18.6673 17.4727 17.4731 18.6669 16.0003 18.6669C14.5276 18.6669 13.334 17.4727 13.334 16ZM11.8923 16C11.8923 18.2688 13.7314 20.1079 16.0003 20.1079C18.2692 20.1079 20.1084 18.2688 20.1084 16C20.1084 13.7312 18.2692 11.8921 16.0003 11.8921C13.7314 11.8921 11.8923 13.7312 11.8923 16ZM19.311 11.7292C19.3108 12.2594 19.7404 12.6894 20.2706 12.6896C20.8008 12.6898 21.2308 12.2602 21.2311 11.73C21.2313 11.1998 20.8016 10.7698 20.2714 10.7696C19.7414 10.7698 19.3114 11.1993 19.311 11.7292ZM12.7682 22.5118C11.9882 22.4763 11.5642 22.3464 11.2825 22.2366C10.909 22.0912 10.6425 21.918 10.3623 21.6382C10.0821 21.3584 9.90862 21.0922 9.76385 20.7187C9.65402 20.4371 9.52409 20.013 9.48864 19.233C9.44985 18.3898 9.44211 18.1364 9.44211 16.0001C9.44211 13.8637 9.45049 13.6111 9.48864 12.7671C9.52416 11.9871 9.65504 11.5639 9.76385 11.2815C9.90926 10.908 10.0825 10.6415 10.3623 10.3613C10.6421 10.0811 10.9083 9.90765 11.2825 9.76288C11.5641 9.65306 11.9882 9.52314 12.7682 9.48768C13.6115 9.4489 13.8648 9.44115 16.0003 9.44115C18.1358 9.44115 18.3894 9.44954 19.2334 9.48768C20.0134 9.5232 20.4367 9.65408 20.7191 9.76288C21.0926 9.90765 21.3591 10.0815 21.6393 10.3613C21.9195 10.6411 22.0923 10.908 22.2378 11.2815C22.3476 11.5631 22.4775 11.9871 22.513 12.7671C22.5518 13.6111 22.5595 13.8637 22.5595 16.0001C22.5595 18.1364 22.5518 18.3891 22.513 19.233C22.4774 20.013 22.3469 20.4369 22.2378 20.7187C22.0923 21.0922 21.9191 21.3587 21.6393 21.6382C21.3595 21.9178 21.0926 22.0912 20.7191 22.2366C20.4375 22.3464 20.0134 22.4764 19.2334 22.5118C18.3901 22.5506 18.1368 22.5583 16.0003 22.5583C13.8639 22.5583 13.6112 22.5506 12.7682 22.5118ZM12.7019 8.04845C11.8503 8.08723 11.2683 8.22227 10.76 8.42003C10.2337 8.62426 9.7881 8.89824 9.34284 9.34278C8.89757 9.78733 8.62428 10.2336 8.42005 10.7599C8.22228 11.2685 8.08724 11.8501 8.04845 12.7018C8.00902 13.5548 8 13.8275 8 16C8 18.1725 8.00902 18.4452 8.04845 19.2982C8.08724 20.15 8.22228 20.7315 8.42005 21.2401C8.62428 21.7661 8.89764 22.2129 9.34284 22.6572C9.78804 23.1016 10.2337 23.3752 10.76 23.58C11.2693 23.7777 11.8503 23.9128 12.7019 23.9516C13.5554 23.9903 13.8277 24 16.0003 24C18.173 24 18.4457 23.991 19.2987 23.9516C20.1504 23.9128 20.732 23.7777 21.2406 23.58C21.7666 23.3752 22.2125 23.1018 22.6578 22.6572C23.1031 22.2127 23.3758 21.7661 23.5806 21.2401C23.7784 20.7315 23.914 20.1499 23.9522 19.2982C23.991 18.4446 24 18.1725 24 16C24 13.8275 23.991 13.5548 23.9522 12.7018C23.9134 11.85 23.7784 11.2682 23.5806 10.7599C23.3758 10.2339 23.1024 9.78803 22.6578 9.34278C22.2132 8.89754 21.7666 8.62426 21.2412 8.42003C20.732 8.22227 20.1504 8.08659 19.2993 8.04845C18.4463 8.00966 18.1736 8 16.001 8C13.8283 8 13.5554 8.00902 12.7019 8.04845Z" fill="black"/>
</g>
<defs>
<clipPath id="clip0_65_41">
<rect width="16" height="16" fill="white" transform="translate(8 8)"/>
</clipPath>
</defs>
</svg>
