<svg width="32" height="32" viewBox="0 0 32 32" fill="none" xmlns="http://www.w3.org/2000/svg">
<rect width="32" height="32" rx="16" fill="white"/>
<g clip-path="url(#clip0_65_42)">
<path d="M13.2902 23.9999C10.9726 23.9999 8.81601 23.3311 7 22.1852C7.32101 22.2226 7.64763 22.2417 7.97882 22.2417C9.90117 22.2417 11.6705 21.5958 13.0748 20.5126C11.2792 20.48 9.76382 19.3122 9.24172 17.7075C9.49613 17.7556 9.7546 17.7798 10.0137 17.7799C10.3879 17.7799 10.7505 17.7305 11.0948 17.6383C9.21767 17.2672 7.80325 15.6347 7.80325 13.6776C7.80325 13.6606 7.80325 13.6437 7.8036 13.6269C8.37331 13.9388 9.01054 14.112 9.6621 14.1321C8.56114 13.4077 7.83672 12.1714 7.83672 10.7701C7.83672 10.0298 8.03904 9.33594 8.39224 8.73932C10.416 11.1832 13.4394 12.7911 16.8496 12.9596C16.7786 12.6578 16.7429 12.3489 16.7433 12.0391C16.7433 9.80852 18.5806 8 20.8467 8C22.0269 8 23.0932 8.49056 23.8418 9.27562C24.7607 9.09744 25.6419 8.76589 26.4473 8.29531C26.141 9.23852 25.4904 10.0301 24.6432 10.53C25.4732 10.4324 26.264 10.2153 27 9.89402C26.4498 10.704 25.754 11.4154 24.9524 11.9849C24.9603 12.1581 24.9643 12.3323 24.9643 12.5074C24.9643 17.8451 20.8375 23.9999 13.2902 23.9999Z" fill="black"/>
</g>
<defs>
<clipPath id="clip0_65_42">
<rect width="20" height="16" fill="white" transform="translate(7 8)"/>
</clipPath>
</defs>
</svg>
