<svg width="80" height="80" viewBox="0 0 80 80" fill="none" xmlns="http://www.w3.org/2000/svg">
<g id="user-shield-01">
<path id="Vector" d="M53.43 45.8923C55.1813 45.0303 57.3283 44.1667 60.001 44.1667C62.6737 44.1667 64.821 45.0303 66.5733 45.892C67.168 46.1847 67.6827 46.4543 68.1503 46.6997C69.1847 47.2417 69.9897 47.6637 70.926 47.9473C71.5253 48.129 72.1507 48.3183 72.587 48.4807C72.9613 48.62 73.69 48.9017 74.2567 49.5C74.7567 50.0277 74.993 50.6057 75.1277 51.054C75.239 51.424 75.3327 51.9193 75.3983 52.2673C77.257 62.0557 73.1637 71.52 63.1213 75.1727C62.211 75.5043 61.3073 75.8333 60.0057 75.8333C58.7037 75.8333 57.8003 75.5043 56.8897 75.1727C46.8477 71.5203 42.75 62.0567 44.608 52.2673C44.6737 51.9193 44.7677 51.4243 44.8787 51.0543C45.0133 50.606 45.2497 50.028 45.7493 49.5003C46.316 48.902 47.0447 48.6203 47.419 48.481C47.8553 48.3187 48.4807 48.129 49.08 47.9473C50.0157 47.6637 50.82 47.242 51.853 46.7C52.3207 46.4547 52.8353 46.185 53.43 45.8923Z" fill="#141B34"/>
<path id="Vector_2" d="M19.1678 21.6667C19.1678 12.0017 27.0029 4.16666 36.668 4.16666C46.3327 4.16666 54.168 12.0017 54.168 21.6667C54.168 31.3316 46.3327 39.1667 36.668 39.1667C27.0029 39.1667 19.1678 31.3316 19.1678 21.6667Z" fill="#141B34"/>
<path id="Vector_3" d="M43.9886 71.7677C45.472 73.7403 46.214 74.7267 45.9376 75.28C45.6613 75.8333 44.525 75.8333 42.2526 75.8333H21.9701C15.9091 75.8333 11.2231 72.852 7.31829 69.132C5.05492 66.9757 3.92669 64.5487 4.20939 61.9627C4.47519 59.5307 5.93739 57.5457 7.47629 56.0393C9.93682 53.631 13.5285 51.6047 15.9046 50.2643C16.4467 49.9583 16.9258 49.688 17.3134 49.4573C21.6629 46.8673 26.4365 45.2303 31.3181 44.5417C34.8643 44.0417 38.4703 44.0417 42.0163 44.5417C42.603 44.6247 42.779 45.4123 42.354 45.825C42.275 45.9013 42.197 45.9803 42.1196 46.062C40.8866 47.364 40.35 48.7517 40.0906 49.6157C39.9006 50.2477 39.7646 50.971 39.706 51.283L39.6956 51.3377C38.312 58.6307 39.7006 66.0657 43.9886 71.7677Z" fill="#141B34"/>
</g>
</svg>
