<svg width="80" height="80" viewBox="0 0 80 80" fill="none" xmlns="http://www.w3.org/2000/svg">
<g id="user-settings-01">
<path id="Vector" fill-rule="evenodd" clip-rule="evenodd" d="M59.5837 39.5833C61.4247 39.5833 62.917 41.0757 62.917 42.9167V44.2453C65.385 44.8127 67.6164 45.997 69.421 47.63L71.1144 46.5413C72.663 45.5457 74.7254 45.994 75.721 47.5427C76.7167 49.0913 76.2684 51.1537 74.7197 52.149L73.1724 53.144C73.7254 54.6333 74.0284 56.241 74.0284 57.9167C74.0284 59.5927 73.7254 61.2007 73.172 62.69L74.7184 63.6843C76.2667 64.6797 76.715 66.742 75.7197 68.2907C74.724 69.8393 72.6617 70.2877 71.113 69.292L69.4207 68.204C67.6157 69.8367 65.3847 71.0207 62.917 71.588V72.9167C62.917 74.7577 61.4247 76.25 59.5837 76.25C57.7427 76.25 56.2504 74.7577 56.2504 72.9167V71.588C53.7827 71.0207 51.5517 69.8367 49.747 68.204L48.0544 69.292C46.506 70.2877 44.4434 69.8393 43.448 68.2907C42.4524 66.742 42.9007 64.6797 44.4494 63.6843L45.9954 62.69C45.4424 61.2007 45.1394 59.5927 45.1394 57.9167C45.1394 56.241 45.442 54.6333 45.9954 53.144L44.4477 52.149C42.8994 51.1537 42.451 49.0913 43.4467 47.5427C44.442 45.994 46.5044 45.5457 48.053 46.5413L49.7464 47.63C51.5514 45.997 53.7824 44.8127 56.2504 44.2453V42.9167C56.2504 41.0757 57.7427 39.5833 59.5837 39.5833ZM59.5837 50.5357C56.8344 50.5357 54.455 51.8827 53.0777 53.871C52.269 55.0387 51.806 56.4253 51.806 57.9167C51.806 59.4083 52.269 60.795 53.078 61.9627C54.4554 63.9507 56.8344 65.2977 59.5837 65.2977C62.333 65.2977 64.712 63.9507 66.0894 61.9627C66.8984 60.795 67.3617 59.4083 67.3617 57.9167C67.3617 56.4253 66.8984 55.0387 66.0897 53.871C64.7124 51.8827 62.3334 50.5357 59.5837 50.5357Z" fill="#141B34"/>
<path id="Vector_2" d="M18.7512 21.25C18.7512 11.585 26.5863 3.75 36.2514 3.75C45.9161 3.75 53.7514 11.585 53.7514 21.25C53.7514 30.915 45.9161 38.75 36.2514 38.75C26.5863 38.75 18.7512 30.915 18.7512 21.25Z" fill="#141B34"/>
<path id="Vector_3" d="M38.785 43.834C36.1567 43.6597 33.513 43.7567 30.9014 44.125C26.0199 44.8137 21.2463 46.4507 16.8968 49.0407C16.5092 49.2713 16.0305 49.5413 15.4885 49.8473C13.1124 51.1877 9.5202 53.2143 7.05966 55.6227C5.52076 57.129 4.05856 59.114 3.79276 61.546C3.51006 64.132 4.6383 66.559 6.90166 68.7153C10.8065 72.4353 15.4925 75.4167 21.5535 75.4167H38.6127C40.993 75.4167 42.183 75.4167 42.274 75.229C42.3653 75.0413 41.5133 73.9577 39.8093 71.79C39.608 71.534 39.4187 71.2683 39.2427 70.9947C37.2777 67.938 37.5627 64.081 39.6747 61.3677C40.0097 60.9377 40.1773 60.7223 40.2307 60.5397C40.2843 60.357 40.262 60.1133 40.2177 59.6257C40.1663 59.0623 40.14 58.4923 40.14 57.9167C40.14 57.3417 40.166 56.772 40.2173 56.209C40.262 55.7213 40.284 55.4773 40.2307 55.2947C40.177 55.112 40.0093 54.897 39.6743 54.4667C37.5613 51.7537 37.276 47.8957 39.2413 44.8387C39.5003 44.4357 39.2633 43.8657 38.785 43.834Z" fill="#141B34"/>
</g>
</svg>
